<mxfile host="65bd71144e">
    <diagram id="byUNUkL-U52qNmG-NzL9" name="Page-1">
        <mxGraphModel dx="576" dy="480" grid="1" gridSize="10" guides="1" tooltips="1" connect="1" arrows="1" fold="1" page="1" pageScale="1" pageWidth="850" pageHeight="1100" math="0" shadow="0">
            <root>
                <mxCell id="0"/>
                <mxCell id="1" parent="0"/>
                <mxCell id="2" value="User Story For Account Creation" style="rounded=0;whiteSpace=wrap;html=1;" vertex="1" parent="1">
                    <mxGeometry x="40" y="39" width="520" height="60" as="geometry"/>
                </mxCell>
                <mxCell id="3" value="Acceptance Criteria" style="rounded=0;whiteSpace=wrap;html=1;" vertex="1" parent="1">
                    <mxGeometry x="42" y="202" width="158" height="60" as="geometry"/>
                </mxCell>
                <mxCell id="4" value="" style="rounded=0;whiteSpace=wrap;html=1;" vertex="1" parent="1">
                    <mxGeometry x="240" y="204" width="320" height="60" as="geometry"/>
                </mxCell>
                <mxCell id="5" value="I would like to create a new bank account with a banking softwarethat can automate my transactions by a mouse click" style="rounded=0;whiteSpace=wrap;html=1;" vertex="1" parent="1">
                    <mxGeometry x="240" y="121" width="320" height="60" as="geometry"/>
                </mxCell>
                <mxCell id="6" value="User Story" style="rounded=0;whiteSpace=wrap;html=1;" vertex="1" parent="1">
                    <mxGeometry x="43" y="119" width="157" height="60" as="geometry"/>
                </mxCell>
            </root>
        </mxGraphModel>
    </diagram>
</mxfile>